<svg width="1301" height="193" viewBox="0 0 1301 193" fill="none" xmlns="http://www.w3.org/2000/svg">
<path d="M0 2C0 0.895429 0.895431 0 2 0H1299C1300.1 0 1301 0.895431 1301 2V191C1301 192.105 1300.1 193 1299 193H1.99998C0.89541 193 0 192.105 0 191V2Z" fill="#222222"/>
<path d="M2 1H1299V-1H2V1ZM1300 2V191H1302V2H1300ZM1299 192H1.99998V194H1299V192ZM1 191V2H-1V191H1ZM1.99998 192C1.44771 192 1 191.552 1 191H-1C-1 192.657 0.343112 194 1.99998 194V192ZM1300 191C1300 191.552 1299.55 192 1299 192V194C1300.66 194 1302 192.657 1302 191H1300ZM1299 1C1299.55 1 1300 1.4477 1300 2H1302C1302 0.343159 1300.66 -1 1299 -1V1ZM2 -1C0.343147 -1 -1 0.343143 -1 2H1C1 1.44771 1.44771 1 2 1V-1Z" fill="white" fill-opacity="0.56"/>
<path fill-rule="evenodd" clip-rule="evenodd" d="M455.583 34.2245L451.006 39.7171H443.563C443.178 39.7171 442.885 40.0633 442.948 40.4435L443.849 45.8516L439.145 51.4971C438.921 51.7655 438.961 52.1654 439.234 52.3837L443.849 56.0757V62.6087C443.849 62.9533 444.129 63.2326 444.473 63.2326H451.006L454.609 67.7357C454.858 68.0479 455.333 68.0479 455.583 67.7357L459.185 63.2326H466.741C467.085 63.2326 467.365 62.9533 467.365 62.6087V56.0757L471.98 52.3837C472.253 52.1654 472.293 51.7655 472.069 51.4971L467.365 45.8516V40.341C467.365 39.9964 467.085 39.7171 466.741 39.7171H460.208L456.582 34.2778C456.35 33.9308 455.85 33.9041 455.583 34.2245ZM459.185 45.8514L448.961 58.1203L449.76 58.786L459.984 46.517L459.185 45.8514ZM455.096 45.8515C455.096 46.9808 454.18 47.8963 453.051 47.8963C451.922 47.8963 451.006 46.9808 451.006 45.8515C451.006 44.7221 451.922 43.8066 453.051 43.8066C454.18 43.8066 455.096 44.7221 455.096 45.8515ZM459.185 60.165C460.315 60.165 461.23 59.2495 461.23 58.1202C461.23 56.9909 460.315 56.0754 459.185 56.0754C458.056 56.0754 457.14 56.9909 457.14 58.1202C457.14 59.2495 458.056 60.165 459.185 60.165Z" fill="white"/>
<path d="M397.917 38.25H378.083C376.08 38.25 375.078 38.25 374.456 38.8339C373.833 39.4179 373.833 40.3577 373.833 42.2374V43.2147C373.833 44.685 373.833 45.4201 374.201 46.0295C374.569 46.6389 375.241 47.0172 376.585 47.7736L380.711 50.0967C381.613 50.6042 382.064 50.858 382.387 51.1382C383.059 51.7218 383.472 52.4075 383.66 53.2485C383.75 53.6523 383.75 54.1249 383.75 55.07L383.75 58.8518C383.75 60.1403 383.75 60.7845 384.107 61.2868C384.464 61.7891 385.098 62.0369 386.365 62.5325C389.027 63.5729 390.358 64.0931 391.304 63.5012C392.25 62.9093 392.25 61.5568 392.25 58.8518V55.07C392.25 54.1249 392.25 53.6523 392.34 53.2485C392.528 52.4075 392.941 51.7218 393.614 51.1382C393.936 50.858 394.387 50.6042 395.289 50.0967L399.416 47.7736C400.759 47.0172 401.431 46.6389 401.799 46.0295C402.167 45.4201 402.167 44.685 402.167 43.2147V42.2374C402.167 40.3577 402.167 39.4179 401.544 38.8339C400.922 38.25 399.92 38.25 397.917 38.25Z" stroke="#5F5F5F" stroke-width="1.5"/>
<line x1="377.653" y1="48.2606" x2="391.82" y2="38.3439" stroke="#5F5F5F" stroke-width="1.5"/>
<path d="M322.833 42.5H317.167C315.246 42.5 313.67 42.5 312.363 42.5771C310.034 42.7145 308.556 43.0967 307.493 44.1597C305.833 45.8195 305.833 48.4907 305.833 53.8333C305.833 59.1759 305.833 61.8472 307.493 63.5069C309.153 65.1667 311.824 65.1667 317.167 65.1667H322.833C328.176 65.1667 330.847 65.1667 332.507 63.5069C334.167 61.8472 334.167 59.1759 334.167 53.8333C334.167 48.4907 334.167 45.8195 332.507 44.1597C331.444 43.0967 329.966 42.7145 327.637 42.5771C326.33 42.5 324.754 42.5 322.833 42.5Z" stroke="white" stroke-width="1.5"/>
<path d="M312.363 42.5771C313.53 42.5476 314.559 41.7278 314.956 40.6305C314.968 40.5967 314.981 40.5591 315.006 40.484L315.042 40.375C315.102 40.1957 315.132 40.106 315.164 40.0265C315.572 39.0109 316.529 38.3214 317.621 38.2552C317.707 38.25 317.801 38.25 317.99 38.25H322.01C322.199 38.25 322.294 38.25 322.379 38.2552C323.472 38.3214 324.429 39.0109 324.837 40.0265C324.869 40.106 324.899 40.1957 324.959 40.375L324.995 40.484C325.02 40.559 325.033 40.5967 325.045 40.6305C325.442 41.7278 326.471 42.5476 327.637 42.5771" stroke="white" stroke-width="1.5"/>
<path d="M333.688 46.3529C329.424 49.1245 327.292 50.5102 325.044 51.2085C321.759 52.2292 318.241 52.2292 314.956 51.2085C312.709 50.5102 310.577 49.1245 306.313 46.3529" stroke="white" stroke-width="1.5" stroke-linecap="round"/>
<path d="M314.333 49.5834V52.4167" stroke="white" stroke-width="1.5" stroke-linecap="round"/>
<path d="M325.667 49.5834V52.4167" stroke="white" stroke-width="1.5" stroke-linecap="round"/>
<circle cx="183.292" cy="50.2917" r="13.4583" stroke="white" stroke-width="1.25"/>
<path d="M193.208 60.2084L198.167 65.1667" stroke="white" stroke-width="1.25" stroke-linecap="round"/>
<path d="M263.688 49.3202C263.018 49.0261 262.294 48.8746 261.562 48.8752H242.438C241.706 48.8745 240.982 49.0258 240.312 49.3195C239.366 49.7336 238.56 50.4145 237.994 51.279C237.428 52.1436 237.126 53.1544 237.125 54.1877V61.6252C237.125 61.907 237.237 62.1773 237.436 62.3765C237.635 62.5758 237.906 62.6877 238.188 62.6877C238.469 62.6877 238.74 62.5758 238.939 62.3765C239.138 62.1773 239.25 61.907 239.25 61.6252V61.094C239.252 60.9536 239.308 60.8195 239.408 60.7203C239.507 60.621 239.641 60.5645 239.781 60.5627H264.219C264.359 60.5645 264.493 60.621 264.592 60.7203C264.692 60.8195 264.748 60.9536 264.75 61.094V61.6252C264.75 61.907 264.862 62.1773 265.061 62.3765C265.26 62.5758 265.531 62.6877 265.812 62.6877C266.094 62.6877 266.365 62.5758 266.564 62.3765C266.763 62.1773 266.875 61.907 266.875 61.6252V54.1877C266.874 53.1545 266.572 52.1439 266.006 51.2794C265.44 50.415 264.634 49.7342 263.688 49.3202Z" fill="#131212"/>
<path d="M259.969 39.3126H244.031C243.045 39.3126 242.099 39.7044 241.402 40.4018C240.704 41.0992 240.312 42.0451 240.312 43.0314V47.8126C240.312 47.8538 240.322 47.8944 240.34 47.9312C240.359 47.968 240.386 48.0001 240.418 48.0248C240.451 48.0495 240.49 48.0662 240.53 48.0737C240.571 48.0811 240.612 48.079 240.652 48.0676C241.232 47.898 241.833 47.8121 242.437 47.8126H242.718C242.784 47.813 242.847 47.7892 242.896 47.7457C242.945 47.7021 242.977 47.642 242.984 47.5769C243.042 47.0577 243.289 46.5781 243.678 46.2296C244.067 45.8811 244.571 45.6882 245.094 45.6876H248.812C249.335 45.6877 249.839 45.8804 250.229 46.2289C250.619 46.5775 250.866 47.0574 250.924 47.5769C250.931 47.642 250.963 47.7021 251.012 47.7457C251.061 47.7892 251.124 47.813 251.19 47.8126H252.814C252.88 47.813 252.943 47.7892 252.992 47.7457C253.041 47.7021 253.072 47.642 253.08 47.5769C253.138 47.0581 253.384 46.5787 253.773 46.2302C254.162 45.8818 254.665 45.6886 255.187 45.6876H258.906C259.429 45.6877 259.933 45.8804 260.323 46.2289C260.712 46.5775 260.96 47.0574 261.018 47.5769C261.025 47.642 261.056 47.7021 261.105 47.7457C261.155 47.7892 261.218 47.813 261.283 47.8126H261.562C262.167 47.8123 262.768 47.8984 263.348 48.0683C263.388 48.0797 263.429 48.0818 263.47 48.0743C263.51 48.0668 263.549 48.05 263.582 48.0252C263.615 48.0004 263.641 47.9683 263.66 47.9314C263.678 47.8945 263.687 47.8538 263.687 47.8126V43.0314C263.687 42.0451 263.296 41.0992 262.598 40.4018C261.901 39.7044 260.955 39.3126 259.969 39.3126Z" fill="#131212"/>
<g clip-path="url(#clip0_0_1)">
<path d="M100.33 56.9556V59.6954C100.33 62.8618 102.657 65.4946 105.69 65.9741V67.9997H107.683V66.0523H124.318V67.9997H126.31V65.9741C129.343 65.4946 131.671 62.8618 131.671 59.6954V56.9556H100.33Z" fill="#131212"/>
<path d="M102.322 50.976V39.4822C102.322 37.5578 103.888 35.9923 105.812 35.9923C107.595 35.9923 109.068 37.3353 109.276 39.0622C107.202 39.5294 105.647 41.3856 105.647 43.5992V44.9275H114.95V43.5992C114.95 41.3696 113.373 39.5024 111.276 39.0519C111.056 36.2296 108.69 34 105.812 34C102.789 34 100.33 36.4593 100.33 39.4822V50.976H99.001V54.9637H133V50.976H102.322Z" fill="#131212"/>
</g>
<path d="M63.583 60.9163C63.583 61.292 63.4338 61.6523 63.1681 61.918C62.9024 62.1837 62.5421 62.3329 62.1664 62.3329H45.1664C44.7907 62.3329 44.4303 62.1837 44.1646 61.918C43.899 61.6523 43.7497 61.292 43.7497 60.9163C43.7497 58.6619 44.6452 56.4999 46.2393 54.9059C47.8334 53.3118 49.9954 52.4163 52.2497 52.4163H55.083C57.3374 52.4163 59.4994 53.3118 61.0935 54.9059C62.6875 56.4999 63.583 58.6619 63.583 60.9163ZM53.6664 39.6663C52.5456 39.6663 51.45 39.9986 50.5182 40.6213C49.5863 41.2439 48.86 42.1289 48.4311 43.1644C48.0022 44.1998 47.8899 45.3392 48.1086 46.4384C48.3272 47.5377 48.8669 48.5474 49.6594 49.3399C50.4519 50.1324 51.4616 50.6721 52.5609 50.8907C53.6601 51.1094 54.7995 50.9971 55.8349 50.5682C56.8704 50.1393 57.7554 49.413 58.378 48.4812C59.0007 47.5493 59.333 46.4537 59.333 45.3329C59.333 43.83 58.736 42.3887 57.6733 41.326C56.6106 40.2633 55.1693 39.6663 53.6664 39.6663ZM40.9164 39.6663C39.7956 39.6663 38.7 39.9986 37.7682 40.6213C36.8363 41.2439 36.11 42.1289 35.6811 43.1644C35.2522 44.1998 35.1399 45.3392 35.3586 46.4384C35.5772 47.5377 36.1169 48.5474 36.9094 49.3399C37.7019 50.1324 38.7116 50.6721 39.8109 50.8907C40.9101 51.1094 42.0495 50.9971 43.0849 50.5682C44.1204 50.1393 45.0054 49.413 45.628 48.4812C46.2507 47.5493 46.583 46.4537 46.583 45.3329C46.583 43.83 45.986 42.3887 44.9233 41.326C43.8606 40.2633 42.4193 39.6663 40.9164 39.6663ZM40.9164 60.9163C40.9143 59.4282 41.2074 57.9545 41.7789 56.5806C42.3504 55.2066 43.1888 53.9597 44.2455 52.9121C43.3807 52.5856 42.4641 52.4176 41.5397 52.4163H40.293C38.2052 52.42 36.2039 53.2511 34.7275 54.7274C33.2512 56.2038 32.4201 58.2051 32.4164 60.2929V60.9163C32.4164 61.292 32.5656 61.6523 32.8313 61.918C33.097 62.1837 33.4573 62.3329 33.833 62.3329H41.1714C41.0064 61.8786 40.9202 61.3995 40.9164 60.9163Z" fill="#131212"/>
<path d="M523.104 35.6032C523.645 34.5182 525.187 34.5026 525.749 35.5765L530.184 44.0507L540.595 45.9634C541.513 46.1321 541.852 47.2713 541.175 47.9145L534.215 54.5306L535.519 65.8088C535.626 66.7291 534.65 67.3865 533.837 66.9423L524.401 61.7859L515.014 66.9151C514.191 67.3645 513.208 66.6868 513.334 65.7583L514.868 54.5306L507.692 47.9265C506.998 47.2871 507.335 46.1289 508.264 45.962L518.898 44.0507L523.104 35.6032Z" fill="#FAC02B"/>
<path fill-rule="evenodd" clip-rule="evenodd" d="M594.5 35.9166C588.057 35.9166 582.833 41.7537 582.833 48.3125C582.833 54.8198 586.557 61.8931 592.367 64.6085C593.721 65.2415 595.279 65.2415 596.633 64.6085C602.443 61.8931 606.167 54.8198 606.167 48.3125C606.167 41.7537 600.943 35.9166 594.5 35.9166ZM594.5 50.5C596.111 50.5 597.417 49.1941 597.417 47.5833C597.417 45.9725 596.111 44.6666 594.5 44.6666C592.889 44.6666 591.583 45.9725 591.583 47.5833C591.583 49.1941 592.889 50.5 594.5 50.5Z" fill="#161117"/>
<g clip-path="url(#clip1_0_1)">
<path fill-rule="evenodd" clip-rule="evenodd" d="M663.353 52.4872C666.802 52.4872 669.609 49.6804 669.609 46.2296C669.609 42.7795 666.802 39.9727 663.353 39.9727C659.903 39.9727 657.094 42.7795 657.094 46.2296C657.093 49.6804 659.903 52.4872 663.353 52.4872ZM663.5 34.4355C672.357 34.4355 679.565 41.642 679.565 50.5C679.565 54.6979 677.945 58.524 675.298 61.389C674.347 59.155 672.804 57.232 670.811 55.8033C668.618 54.2345 666.04 53.3834 663.355 53.3431C663.352 53.3424 663.349 53.3424 663.346 53.3431C660.703 53.3827 658.16 54.2099 655.99 55.7343C654.02 57.1192 652.477 58.9895 651.499 61.1675C648.973 58.3285 647.436 54.5906 647.436 50.5C647.436 41.642 654.644 34.4355 663.5 34.4355ZM675.344 38.6574C678.507 41.8211 680.249 46.0266 680.249 50.5C680.249 54.9734 678.507 59.1796 675.344 62.3426C672.181 65.5062 667.975 67.248 663.5 67.248C659.028 67.248 654.82 65.5062 651.657 62.3426C648.493 59.1796 646.751 54.9734 646.751 50.5C646.751 46.0266 648.493 41.8211 651.656 38.6574C654.82 35.4944 659.028 33.752 663.5 33.752C667.975 33.752 672.181 35.4944 675.344 38.6574Z" fill="#161117"/>
</g>
<g clip-path="url(#clip2_0_1)">
<path fill-rule="evenodd" clip-rule="evenodd" d="M732.353 52.4872C735.802 52.4872 738.609 49.6804 738.609 46.2296C738.609 42.7795 735.802 39.9727 732.353 39.9727C728.903 39.9727 726.094 42.7795 726.094 46.2296C726.093 49.6804 728.903 52.4872 732.353 52.4872ZM732.5 34.4355C741.357 34.4355 748.565 41.642 748.565 50.5C748.565 54.6979 746.945 58.524 744.298 61.389C743.347 59.155 741.804 57.232 739.811 55.8033C737.618 54.2345 735.04 53.3834 732.355 53.3431C732.352 53.3424 732.349 53.3424 732.346 53.3431C729.703 53.3827 727.16 54.2099 724.99 55.7343C723.02 57.1192 721.477 58.9895 720.499 61.1675C717.973 58.3285 716.436 54.5906 716.436 50.5C716.436 41.642 723.644 34.4355 732.5 34.4355ZM744.344 38.6574C747.507 41.8211 749.249 46.0266 749.249 50.5C749.249 54.9734 747.507 59.1796 744.344 62.3426C741.181 65.5062 736.975 67.248 732.5 67.248C728.028 67.248 723.82 65.5062 720.657 62.3426C717.493 59.1796 715.751 54.9734 715.751 50.5C715.751 46.0266 717.493 41.8211 720.656 38.6574C723.82 35.4944 728.028 33.752 732.5 33.752C736.975 33.752 741.181 35.4944 744.344 38.6574Z" fill="white"/>
</g>
<path d="M796.696 60.7904L797.16 60.2014L796.696 60.7904ZM801 41.7925L800.46 42.3126C800.601 42.4595 800.796 42.5425 801 42.5425C801.204 42.5425 801.399 42.4595 801.54 42.3126L801 41.7925ZM805.304 60.7904L805.769 61.3793L805.304 60.7904ZM797.16 60.2014C795.031 58.5233 792.649 56.845 790.762 54.7205C788.901 52.6249 787.583 50.1547 787.583 46.9442H786.083C786.083 50.6228 787.612 53.4327 789.641 55.7165C791.643 57.9713 794.192 59.7715 796.231 61.3793L797.16 60.2014ZM787.583 46.9442C787.583 43.7802 789.372 41.1107 791.838 39.9833C794.257 38.8776 797.464 39.2005 800.46 42.3126L801.54 41.2724C798.161 37.7614 794.285 37.2155 791.214 38.6191C788.191 40.0011 786.083 43.219 786.083 46.9442H787.583ZM796.231 61.3793C796.96 61.9537 797.722 62.5498 798.49 62.9983C799.257 63.4468 800.101 63.7916 801 63.7916V62.2916C800.482 62.2916 799.909 62.0906 799.247 61.7033C798.584 61.3161 797.902 60.7866 797.16 60.2014L796.231 61.3793ZM805.769 61.3793C807.808 59.7715 810.357 57.9713 812.359 55.7165C814.387 53.4327 815.917 50.6228 815.917 46.9442H814.417C814.417 50.1547 813.099 52.6249 811.238 54.7205C809.351 56.845 806.969 58.5233 804.84 60.2014L805.769 61.3793ZM815.917 46.9442C815.917 43.219 813.809 40.0011 810.786 38.6191C807.715 37.2155 803.839 37.7614 800.46 41.2724L801.54 42.3126C804.536 39.2005 807.743 38.8776 810.162 39.9833C812.628 41.1107 814.417 43.7802 814.417 46.9442H815.917ZM804.84 60.2014C804.098 60.7866 803.416 61.3161 802.753 61.7033C802.091 62.0906 801.518 62.2916 801 62.2916V63.7916C801.899 63.7916 802.743 63.4468 803.51 62.9983C804.278 62.5498 805.04 61.9537 805.769 61.3793L804.84 60.2014Z" fill="#161117"/>
<path d="M852 51V66.2C852 67.1941 852.806 68 853.8 68H882.16C883.154 68 883.96 67.1941 883.96 66.2V51M868.32 58.48V34M868.32 34L862.2 42.16M868.32 34L874.44 42.16" stroke="#161117" stroke-width="2" stroke-linecap="round"/>
<path d="M949.167 53.8333V51C949.167 49.8113 949.167 48.7549 949.148 47.8125H920.852C920.833 48.7549 920.833 49.8113 920.833 51V53.8333C920.833 59.1759 920.833 61.8472 922.493 63.5069C924.153 65.1666 926.824 65.1666 932.167 65.1666H937.833C943.176 65.1666 945.847 65.1666 947.507 63.5069C949.167 61.8472 949.167 59.1759 949.167 53.8333Z" fill="#747474"/>
<path d="M928.979 37.5416C928.979 36.9548 928.503 36.4791 927.917 36.4791C927.33 36.4791 926.854 36.9548 926.854 37.5416V39.7789C924.815 39.9422 923.476 40.3429 922.493 41.3264C921.51 42.3098 921.109 43.6484 920.946 45.6875H949.054C948.891 43.6484 948.49 42.3098 947.507 41.3264C946.523 40.3429 945.185 39.9422 943.146 39.7789V37.5416C943.146 36.9548 942.67 36.4791 942.083 36.4791C941.497 36.4791 941.021 36.9548 941.021 37.5416V39.6849C940.078 39.6666 939.022 39.6666 937.833 39.6666H932.167C930.978 39.6666 929.922 39.6666 928.979 39.6849V37.5416Z" fill="#747474"/>
<path d="M991.667 51H1014.33M1014.33 51L1005.83 42.5M1014.33 51L1005.83 59.5" stroke="#34967C" stroke-width="1.5" stroke-linecap="round" stroke-linejoin="round"/>
<g clip-path="url(#clip3_0_1)">
<path d="M268.138 126.339H263.64L260.428 122.811C260.122 122.475 259.608 122.435 259.253 122.718L257.261 124.309L252.003 116.005C251.845 115.755 251.571 115.604 251.275 115.604C250.98 115.604 250.706 115.755 250.548 116.005L246.059 123.095L244.376 120.632C244.215 120.397 243.949 120.257 243.664 120.257C243.38 120.257 243.113 120.397 242.953 120.632L239.053 126.339H235.862C235.386 126.339 235 126.725 235 127.201C235 127.676 235.386 128.062 235.862 128.062H237.876L237.19 129.065C236.921 129.458 237.022 129.994 237.415 130.263C237.564 130.364 237.733 130.413 237.901 130.413C238.176 130.413 238.446 130.282 238.613 130.038L238.945 129.551L243.664 122.646L245.055 124.681L241.972 129.551L239.742 133.073C239.487 133.476 239.607 134.008 240.009 134.262C240.152 134.353 240.311 134.396 240.469 134.396C240.754 134.396 241.034 134.254 241.198 133.995L241.607 133.348L251.276 118.076L259.131 130.484L259.327 130.794C259.581 131.196 260.113 131.315 260.515 131.061C260.881 130.829 261.012 130.368 260.841 129.983C260.824 129.946 260.805 129.908 260.782 129.872L258.188 125.774L259.698 124.568L264.871 130.25L265.474 130.913C265.644 131.1 265.878 131.194 266.112 131.194C266.319 131.194 266.526 131.12 266.692 130.97C267.043 130.649 267.069 130.105 266.749 129.753L265.209 128.062H268.139C268.614 128.062 269 127.676 269 127.201C269 126.725 268.614 126.339 268.138 126.339Z" fill="black"/>
</g>
<g clip-path="url(#clip4_0_1)">
<path d="M176.273 124.227C176.273 123.8 175.927 123.455 175.5 123.455C175.073 123.455 174.727 123.8 174.727 124.227C174.727 126.256 176.965 129.043 177.22 129.354C177.374 129.54 177.595 129.636 177.819 129.636C177.991 129.636 178.164 129.579 178.309 129.461C178.638 129.19 178.686 128.704 178.416 128.373C177.587 127.364 176.273 125.346 176.273 124.227Z" fill="black"/>
<path d="M192.5 123.455C192.073 123.455 191.727 123.8 191.727 124.227C191.727 125.342 190.413 127.362 189.584 128.374C189.314 128.704 189.362 129.191 189.692 129.461C189.835 129.579 190.009 129.636 190.182 129.636C190.405 129.636 190.626 129.54 190.779 129.354C191.035 129.043 193.273 126.257 193.273 124.227C193.273 123.8 192.927 123.455 192.5 123.455Z" fill="black"/>
<path d="M184 123.455C183.573 123.455 183.227 123.8 183.227 124.227V128.864C183.227 129.291 183.573 129.636 184 129.636C184.427 129.636 184.773 129.291 184.773 128.864V124.227C184.773 123.8 184.427 123.455 184 123.455Z" fill="black"/>
<path d="M192.5 111.091C192.032 111.091 191.542 111.153 191.034 111.247C189.332 109.263 186.813 108 184 108C181.187 108 178.668 109.263 176.966 111.247C176.458 111.153 175.968 111.091 175.5 111.091C170.813 111.091 167 114.904 167 119.591C167 122.803 168.811 125.722 171.654 127.166L171.639 138.843C171.639 139.686 171.966 140.479 172.562 141.075C173.158 141.672 173.949 142 174.792 142H193.211C194.95 142 196.364 140.586 196.364 138.847V127.154C199.197 125.707 201 122.792 201 119.591C201 114.904 197.187 111.091 192.5 111.091ZM194.818 138.847C194.818 139.733 194.097 140.455 193.211 140.455H174.792C174.363 140.455 173.959 140.287 173.655 139.983C173.352 139.679 173.184 139.275 173.185 138.845L173.189 135.818H194.818V138.847ZM195.297 125.952C195.256 125.968 195.217 125.988 195.181 126.011C195.084 126.072 195.004 126.152 194.944 126.244C194.884 126.335 194.843 126.441 194.826 126.554C194.82 126.597 194.817 126.64 194.818 126.684V134.273H173.191L173.201 126.694C173.201 126.652 173.199 126.609 173.193 126.567C173.177 126.45 173.134 126.342 173.071 126.247C173.012 126.159 172.935 126.082 172.841 126.023C172.803 125.999 172.762 125.978 172.72 125.96C170.184 124.851 168.545 122.354 168.545 119.591C168.545 115.756 171.665 112.636 175.5 112.636C175.65 112.636 175.808 112.654 175.963 112.667C175.182 114.025 174.727 115.596 174.727 117.273C174.727 117.7 175.073 118.045 175.5 118.045C175.927 118.045 176.273 117.7 176.273 117.273C176.273 113.012 179.739 109.545 184 109.545C188.261 109.545 191.727 113.012 191.727 117.273C191.727 117.7 192.073 118.045 192.5 118.045C192.927 118.045 193.273 117.7 193.273 117.273C193.273 115.596 192.818 114.026 192.037 112.667C192.192 112.654 192.35 112.636 192.5 112.636C196.335 112.636 199.455 115.756 199.455 119.591C199.455 122.344 197.823 124.838 195.297 125.952Z" fill="black"/>
</g>
<g clip-path="url(#clip5_0_1)">
<path d="M115.317 124.843C115.196 124.885 115.078 124.934 114.962 124.991C114.12 125.436 113.47 126.174 113.136 127.066C112.586 128.348 110.038 132.651 100.323 134.124C100.008 134.168 99.7272 134.342 99.5485 134.604C99.3729 134.863 99.3154 135.184 99.3902 135.488C99.6066 136.273 99.9935 137 100.523 137.618C100.559 137.681 100.606 137.737 100.662 137.782C101.675 138.865 102.928 139.695 104.321 140.205C104.336 140.211 104.35 140.218 104.365 140.223C105.025 140.483 105.701 140.699 106.389 140.869C107.606 141.169 108.847 141.362 110.098 141.443C110.12 141.447 110.143 141.45 110.165 141.452C110.172 141.452 110.178 141.448 110.183 141.448C110.512 141.467 110.846 141.481 111.187 141.481C113.345 141.481 115.726 141.045 117.638 139.621C118.558 140.248 119.735 140.364 120.759 139.927C121.615 140.883 122.824 141.449 124.107 141.494C125.39 141.538 126.635 141.058 127.556 140.163C128.802 140.751 130.274 140.581 131.353 139.724C132.433 138.868 132.933 137.473 132.644 136.126C132.354 134.779 131.326 133.712 129.99 133.374C129.581 131.95 128.459 130.841 127.03 130.448C125.601 130.054 124.07 130.433 122.99 131.448C122.367 131.102 121.644 130.979 120.942 131.1C120.897 130.21 120.799 129.324 120.649 128.446C120.47 127.382 119.931 126.412 119.121 125.699L122.094 110.322C122.195 109.818 122.091 109.295 121.804 108.868C121.367 108.209 120.574 107.88 119.798 108.035C119.022 108.191 118.418 108.8 118.269 109.577L115.317 124.843ZM122.735 132.609C122.972 132.789 123.308 132.752 123.5 132.525C124.279 131.6 125.521 131.205 126.692 131.511C127.863 131.816 128.753 132.767 128.982 133.955C129.027 134.189 129.216 134.368 129.452 134.401C130.468 134.544 131.294 135.291 131.538 136.288C131.782 137.284 131.395 138.329 130.561 138.925C129.726 139.522 128.613 139.55 127.749 138.997C127.514 138.847 127.205 138.893 127.024 139.105C126.311 139.95 125.248 140.42 124.143 140.379C123.037 140.339 122.012 139.792 121.363 138.896C121.191 138.66 120.867 138.596 120.618 138.749C119.903 139.192 118.995 139.179 118.292 138.717C117.589 138.255 117.218 137.427 117.341 136.594C117.463 135.762 118.058 135.076 118.864 134.836C119.098 134.766 119.259 134.552 119.262 134.308C119.28 133.125 120.242 132.173 121.426 132.168C121.899 132.166 122.359 132.322 122.735 132.609ZM118.174 133.906C116.982 134.432 116.211 135.609 116.204 136.912C116.205 137.604 116.426 138.279 116.836 138.837C115.477 139.739 113.899 140.255 112.27 140.332C113.216 139.707 114.068 138.952 114.803 138.088C115 137.852 114.968 137.5 114.732 137.303C114.495 137.105 114.143 137.137 113.946 137.374C112.863 138.616 111.537 139.621 110.048 140.328C108.905 140.244 107.772 140.062 106.66 139.786C106.56 139.761 106.471 139.73 106.374 139.706C109.352 138.688 112.764 136.933 114.79 133.951C114.957 133.697 114.889 133.355 114.638 133.184C114.386 133.012 114.043 133.075 113.868 133.324C111.678 136.551 107.639 138.242 104.566 139.102C103.714 138.765 102.918 138.302 102.202 137.731C104.378 137.419 106.491 136.768 108.464 135.801C108.642 135.707 108.755 135.525 108.761 135.324C108.767 135.124 108.664 134.935 108.492 134.831C108.32 134.727 108.106 134.724 107.931 134.822C105.894 135.934 102.989 136.499 101.251 136.755C100.893 136.303 100.632 135.784 100.482 135.227C109.048 133.928 112.41 130.425 113.645 128.468C113.856 128.671 114.086 128.853 114.332 129.012C115.15 129.523 116.099 129.786 117.063 129.768C117.126 129.768 117.188 129.768 117.252 129.765C118.069 129.751 118.879 129.624 119.661 129.387C119.757 130.081 119.816 130.779 119.836 131.478C118.931 131.981 118.315 132.88 118.174 133.906ZM119.462 128.271C118.738 128.512 117.98 128.64 117.216 128.651C116.417 128.698 115.623 128.497 114.941 128.077C114.662 127.901 114.412 127.683 114.201 127.429C114.437 126.817 114.881 126.308 115.456 125.991C116.091 125.698 116.821 125.689 117.463 125.966C118.456 126.375 119.198 127.23 119.462 128.271ZM119.363 109.789C119.451 109.339 119.884 109.044 120.335 109.127C120.556 109.17 120.752 109.299 120.877 109.487C120.999 109.669 121.044 109.892 121 110.107L118.11 125.045C118.026 125.005 117.943 124.96 117.858 124.926C117.42 124.759 116.957 124.668 116.488 124.659L119.363 109.789Z" fill="black"/>
<path d="M125.203 133.963C125.429 133.695 125.789 133.581 126.129 133.669C126.468 133.757 126.726 134.033 126.793 134.377C126.843 134.64 127.073 134.829 127.34 134.829C127.375 134.829 127.411 134.826 127.446 134.819C127.591 134.791 127.719 134.707 127.802 134.585C127.885 134.462 127.916 134.312 127.888 134.167C127.74 133.4 127.165 132.787 126.41 132.59C125.655 132.393 124.854 132.648 124.351 133.244C124.152 133.48 124.182 133.832 124.418 134.03C124.653 134.229 125.005 134.199 125.203 133.963Z" fill="black"/>
<path d="M128.262 127.23C128.262 128.307 129.136 129.18 130.213 129.18C131.291 129.18 132.164 128.307 132.164 127.23C132.164 126.152 131.291 125.279 130.213 125.279C129.136 125.279 128.262 126.152 128.262 127.23ZM131.049 127.23C131.049 127.691 130.675 128.066 130.213 128.066C129.751 128.066 129.377 127.691 129.377 127.23C129.377 126.768 129.751 126.393 130.213 126.393C130.675 126.393 131.049 126.768 131.049 127.23Z" fill="black"/>
<path d="M126.59 125.279C127.514 125.279 128.262 124.53 128.262 123.607C128.262 122.683 127.514 121.934 126.59 121.934C125.667 121.934 124.918 122.683 124.918 123.607C124.918 124.53 125.667 125.279 126.59 125.279ZM126.59 123.049C126.898 123.049 127.148 123.299 127.148 123.607C127.148 123.914 126.898 124.164 126.59 124.164C126.282 124.164 126.033 123.914 126.033 123.607C126.033 123.299 126.282 123.049 126.59 123.049Z" fill="black"/>
<path d="M103.18 120.82C103.488 120.82 103.738 120.57 103.738 120.262V119.148C103.738 118.84 103.488 118.59 103.18 118.59C102.872 118.59 102.623 118.84 102.623 119.148V120.262C102.623 120.57 102.872 120.82 103.18 120.82Z" fill="black"/>
<path d="M103.738 123.607V122.492C103.738 122.184 103.488 121.934 103.18 121.934C102.872 121.934 102.623 122.184 102.623 122.492V123.607C102.623 123.914 102.872 124.164 103.18 124.164C103.488 124.164 103.738 123.914 103.738 123.607Z" fill="black"/>
<path d="M100.951 121.934H102.066C102.373 121.934 102.623 121.685 102.623 121.377C102.623 121.069 102.373 120.82 102.066 120.82H100.951C100.643 120.82 100.393 121.069 100.393 121.377C100.393 121.685 100.643 121.934 100.951 121.934Z" fill="black"/>
<path d="M104.295 121.934H105.41C105.718 121.934 105.967 121.685 105.967 121.377C105.967 121.069 105.718 120.82 105.41 120.82H104.295C103.987 120.82 103.738 121.069 103.738 121.377C103.738 121.685 103.987 121.934 104.295 121.934Z" fill="black"/>
<path d="M105.294 127.95L104.458 128.786C104.313 128.926 104.255 129.134 104.306 129.328C104.357 129.523 104.51 129.675 104.704 129.726C104.899 129.777 105.107 129.719 105.247 129.574L106.083 128.738C106.294 128.52 106.291 128.172 106.076 127.957C105.861 127.742 105.513 127.739 105.294 127.95Z" fill="black"/>
<path d="M108.591 125.442C108.373 125.224 108.02 125.224 107.803 125.442L106.967 126.278C106.822 126.418 106.764 126.625 106.815 126.82C106.866 127.015 107.018 127.167 107.213 127.218C107.408 127.269 107.615 127.211 107.755 127.066L108.591 126.23C108.808 126.012 108.808 125.66 108.591 125.442Z" fill="black"/>
<path d="M107.755 127.95C107.536 127.739 107.188 127.742 106.973 127.957C106.758 128.172 106.755 128.52 106.967 128.738L107.803 129.574C108.021 129.786 108.369 129.783 108.584 129.568C108.799 129.353 108.802 129.005 108.591 128.786L107.755 127.95Z" fill="black"/>
<path d="M106.083 126.278L105.247 125.442C105.028 125.231 104.68 125.234 104.465 125.449C104.25 125.664 104.247 126.012 104.458 126.23L105.295 127.066C105.513 127.278 105.861 127.275 106.076 127.06C106.291 126.845 106.294 126.497 106.083 126.278Z" fill="black"/>
<path d="M105.87 113.614L115.346 115.286C115.378 115.292 115.411 115.295 115.443 115.294C115.731 115.293 115.971 115.072 115.996 114.785C116.021 114.499 115.823 114.24 115.54 114.189L106.064 112.516C105.765 112.47 105.483 112.672 105.43 112.97C105.378 113.269 105.573 113.555 105.87 113.614Z" fill="black"/>
<path d="M114.788 118.073C114.82 118.079 114.853 118.082 114.886 118.081C115.174 118.08 115.413 117.859 115.438 117.572C115.463 117.285 115.266 117.027 114.982 116.975L108.941 115.909C108.638 115.855 108.348 116.057 108.295 116.361C108.241 116.664 108.444 116.953 108.747 117.007L114.788 118.073Z" fill="black"/>
<path d="M106.474 118.876C106.449 119.022 106.482 119.172 106.567 119.293C106.651 119.414 106.781 119.496 106.926 119.522L114.231 120.811C114.263 120.817 114.295 120.82 114.328 120.82C114.617 120.82 114.858 120.599 114.883 120.311C114.909 120.023 114.709 119.763 114.424 119.713L107.12 118.423C106.974 118.397 106.824 118.431 106.703 118.516C106.582 118.601 106.5 118.73 106.474 118.876Z" fill="black"/>
</g>
<g clip-path="url(#clip6_0_1)">
<path d="M63.8664 140.114C63.507 140.474 63.0291 140.672 62.5209 140.672C62.0126 140.672 61.5347 140.474 61.1753 140.114C59.9156 138.855 57.8658 138.855 56.606 140.114C56.2466 140.474 55.7687 140.672 55.2605 140.672C54.7522 140.672 54.2743 140.474 53.9149 140.114C52.6552 138.855 50.6054 138.855 49.3456 140.114C48.9861 140.474 48.5083 140.672 48 140.672C47.4917 140.672 47.0139 140.474 46.6544 140.114C45.3947 138.855 43.3449 138.855 42.0851 140.114C41.7257 140.474 41.2478 140.672 40.7395 140.672C40.2313 140.672 39.7534 140.474 39.394 140.114C38.1343 138.855 36.0845 138.855 34.8247 140.114C34.4653 140.474 33.9874 140.672 33.4792 140.672C32.9709 140.672 32.493 140.474 32.1336 140.114C31.8744 139.855 31.4539 139.855 31.1945 140.114C30.9352 140.374 30.9351 140.794 31.1945 141.054C31.8048 141.664 32.6161 142 33.4792 142C34.3422 142 35.1535 141.664 35.7638 141.054C36.5058 140.312 37.713 140.312 38.4549 141.054C39.0652 141.664 39.8765 142 40.7395 142C41.6026 142 42.414 141.664 43.0243 141.054C43.7661 140.312 44.9733 140.312 45.7153 141.054C46.3256 141.664 47.137 142 48 142C48.863 142 49.6744 141.664 50.2847 141.054C51.0266 140.312 52.2338 140.312 52.9758 141.054C53.586 141.664 54.3974 142 55.2605 142C56.1235 142 56.9348 141.664 57.5451 141.054C58.2871 140.312 59.4943 140.312 60.2362 141.054C60.8465 141.664 61.6578 142 62.5209 142C63.3839 142 64.1953 141.664 64.8056 141.054C65.0649 140.794 65.0649 140.374 64.8056 140.114C64.5462 139.855 64.1257 139.855 63.8664 140.114Z" fill="black"/>
<path d="M63.8665 134.765C63.5071 135.125 63.0292 135.323 62.521 135.323C62.0127 135.323 61.5348 135.125 61.1754 134.765C59.9156 133.505 57.8659 133.505 56.6061 134.765C56.2467 135.125 55.7688 135.323 55.2606 135.323C54.7523 135.323 54.2744 135.125 53.915 134.765C52.6553 133.505 50.6055 133.505 49.3457 134.765C48.6037 135.507 47.3965 135.507 46.6546 134.765C45.3949 133.505 43.345 133.505 42.0852 134.765C41.7258 135.125 41.248 135.323 40.7397 135.323C40.2314 135.323 39.7536 135.125 39.3942 134.765C38.1344 133.505 36.0847 133.505 34.8248 134.765C34.4654 135.125 33.9876 135.323 33.4793 135.323C32.971 135.323 32.4932 135.125 32.1338 134.765C31.8745 134.506 31.454 134.506 31.1946 134.765C30.9353 135.024 30.9353 135.445 31.1946 135.704C32.4545 136.964 34.5042 136.964 35.764 135.704C36.506 134.962 37.7132 134.962 38.4551 135.704C39.7148 136.964 41.7646 136.964 43.0244 135.704C43.7663 134.962 44.9736 134.962 45.7155 135.704C46.9753 136.964 49.025 136.964 50.2848 135.704C51.0266 134.962 52.234 134.962 52.9759 135.704C53.6059 136.334 54.433 136.649 55.2606 136.649C56.0879 136.649 56.9154 136.334 57.5452 135.704C58.2872 134.962 59.4944 134.962 60.2363 135.704C61.496 136.964 63.5459 136.964 64.8057 135.704C65.065 135.445 65.065 135.025 64.8057 134.765C64.5463 134.506 64.1258 134.506 63.8665 134.765Z" fill="black"/>
<path d="M31.6641 114.906H42.3776V129.158C42.2764 129.237 42.1783 129.323 42.0851 129.416C41.7257 129.775 41.2479 129.973 40.7396 129.973C40.2313 129.973 39.7535 129.775 39.3941 129.416C38.1343 128.156 36.0846 128.156 34.8247 129.416C34.4653 129.775 33.9875 129.973 33.4792 129.973C32.9709 129.973 32.4931 129.775 32.1337 129.416C31.8744 129.157 31.4539 129.157 31.1945 129.416C30.9352 129.675 30.9352 130.096 31.1945 130.355C32.4543 131.615 34.5041 131.615 35.7638 130.355C36.5059 129.613 37.7131 129.613 38.4549 130.355C39.7147 131.615 41.7645 131.615 43.0243 130.355C43.7662 129.613 44.9735 129.613 45.7153 130.355C46.9751 131.615 49.0248 131.615 50.2847 130.355C51.0265 129.613 52.2338 129.613 52.9757 130.355C53.6057 130.985 54.4329 131.3 55.2604 131.3C56.0877 131.3 56.9153 130.985 57.5451 130.355C58.2871 129.613 59.4943 129.613 60.2362 130.355C61.4959 131.615 63.5458 131.615 64.8055 130.355C65.0649 130.096 65.0649 129.675 64.8055 129.416C64.5462 129.157 64.1257 129.157 63.8664 129.416C63.507 129.775 63.0291 129.973 62.5208 129.973C62.0126 129.973 61.5347 129.775 61.1753 129.416C61.0821 129.323 60.9841 129.237 60.8829 129.158V114.906H64.336C64.7028 114.906 65 114.609 65 114.242C65 113.875 64.7028 113.578 64.336 113.578H60.8475C60.5149 110.447 57.8583 108 54.6407 108C51.423 108 48.7664 110.447 48.4338 113.578H46.3267C45.994 110.447 43.3375 108 40.1198 108C36.9022 108 34.2457 110.447 33.913 113.578H31.6641C31.2974 113.578 31 113.875 31 114.242C31 114.609 31.2974 114.906 31.6641 114.906ZM37.9618 113.578C38.2461 112.656 39.1059 111.984 40.1198 111.984C41.1337 111.984 41.9936 112.656 42.2778 113.578H37.9618ZM56.8985 114.906V116.766H46.362V114.906H56.8985ZM56.8985 119.422H46.362V118.094H56.8985V119.422ZM46.362 120.75H56.8985V122.609H46.362V120.75ZM52.4827 113.578C52.767 112.656 53.6268 111.984 54.6407 111.984C55.6546 111.984 56.5145 112.656 56.7987 113.578H52.4827ZM55.2604 129.973C54.7522 129.973 54.2743 129.775 53.9149 129.416C52.6551 128.156 50.6054 128.156 49.3456 129.416C48.6036 130.158 47.3964 130.158 46.6545 129.416C46.5612 129.323 46.4633 129.237 46.362 129.158V126.594H48.6419C49.0087 126.594 49.306 126.296 49.306 125.93C49.306 125.563 49.0087 125.266 48.6419 125.266H46.362V123.938H56.8985V125.266H54.6186C54.2518 125.266 53.9545 125.563 53.9545 125.93C53.9545 126.296 54.2518 126.594 54.6186 126.594H56.8985V129.158C56.7972 129.237 56.6992 129.323 56.606 129.416C56.2466 129.775 55.7687 129.973 55.2604 129.973ZM54.6407 109.328C57.3503 109.328 59.5547 111.533 59.5547 114.242V128.54C59.1171 128.449 58.6643 128.449 58.2266 128.54V114.242C58.2266 112.265 56.618 110.656 54.6407 110.656C52.8903 110.656 51.4298 111.917 51.1174 113.578H49.7727C50.0981 111.182 52.1564 109.328 54.6407 109.328ZM40.1198 109.328C42.8295 109.328 45.0339 111.533 45.0339 114.242V128.54C44.5962 128.449 44.1434 128.449 43.7058 128.54V114.242C43.7058 112.265 42.0971 110.656 40.1198 110.656C38.3695 110.656 36.9089 111.917 36.5965 113.578H35.2519C35.5772 111.182 37.6356 109.328 40.1198 109.328Z" fill="black"/>
<path d="M51.6305 125.266C51.4552 125.266 51.2845 125.337 51.1603 125.46C51.0368 125.584 50.9664 125.755 50.9664 125.93C50.9664 126.104 51.0368 126.276 51.1603 126.399C51.2845 126.523 51.4552 126.594 51.6305 126.594C51.8051 126.594 51.9765 126.523 52.1 126.399C52.2235 126.276 52.2946 126.104 52.2946 125.93C52.2946 125.755 52.2235 125.584 52.1 125.46C51.9765 125.337 51.8051 125.266 51.6305 125.266Z" fill="black"/>
</g>
<path d="M322.205 114.25C322.385 113.906 322.48 113.524 322.484 113.135C322.484 111.754 321.364 110.634 319.982 110.634C318.601 110.634 317.481 111.754 317.481 113.135C317.484 113.524 317.58 113.906 317.759 114.25C311.784 114.551 306.323 116.08 306.323 118.746C306.322 119.141 306.64 119.462 307.035 119.464C307.06 119.464 307.085 119.463 307.11 119.461H332.926C333.321 119.461 333.641 119.141 333.641 118.746C333.641 116.08 328.202 114.551 322.205 114.25ZM320.018 112.07C320.602 112.07 321.076 112.544 321.076 113.128C321.076 113.712 320.602 114.186 320.018 114.186C319.434 114.186 318.96 113.712 318.96 113.128C318.96 112.544 319.434 112.07 320.018 112.07ZM308.26 118.06C309.583 116.873 313.885 115.615 320.018 115.615V115.644C326.15 115.644 330.453 116.902 331.775 118.06H308.26Z" fill="black"/>
<path d="M309.611 122.906C309.217 122.906 308.897 123.226 308.897 123.62V131.304C308.897 131.699 309.217 132.019 309.611 132.019C310.006 132.019 310.326 131.699 310.326 131.304V123.62C310.326 123.226 310.006 122.906 309.611 122.906Z" fill="black"/>
<path d="M336.285 123.099H333.641V121.055C333.641 120.66 333.321 120.34 332.926 120.34H307.11C306.715 120.34 306.395 120.66 306.395 121.055V123.099H303.715C303.32 123.099 303 123.419 303 123.814C303 124.208 303.32 124.528 303.715 124.528H306.402V135.078C306.402 138.244 308.668 139.366 310.798 139.366H329.309C332.476 139.366 333.598 137.151 333.598 135.078V124.528H336.285C336.68 124.528 337 124.208 337 123.814C337 123.419 336.68 123.099 336.285 123.099ZM332.211 135.078C332.211 136.386 331.711 137.937 329.352 137.937H310.769C309.661 137.937 307.803 137.565 307.803 135.078V121.769H332.211V135.078Z" fill="black"/>
<path d="M671.983 122.453C672.088 122.709 672.336 122.863 672.596 122.863C672.681 122.863 672.767 122.847 672.85 122.813L674.665 122.061C675.004 121.921 675.165 121.532 675.024 121.193C674.884 120.854 674.496 120.694 674.157 120.834L672.342 121.586C672.003 121.726 671.842 122.114 671.983 122.453Z" fill="black"/>
<path d="M676.336 128.062H670.204C669.861 122.732 665.416 118.5 660 118.5C654.584 118.5 650.139 122.732 649.796 128.062H643.664C643.297 128.062 643 128.36 643 128.726C643 129.093 643.297 129.39 643.664 129.39H657.012C657.378 129.39 657.676 129.093 657.676 128.726C657.676 128.36 657.378 128.062 657.012 128.062H651.126C651.467 123.464 655.317 119.828 660 119.828C664.683 119.828 668.533 123.464 668.874 128.062H662.988C662.622 128.062 662.324 128.36 662.324 128.726C662.324 129.093 662.622 129.39 662.988 129.39H676.336C676.703 129.39 677 129.093 677 128.726C677 128.36 676.703 128.062 676.336 128.062Z" fill="black"/>
<path d="M660 116.909C660.367 116.909 660.664 116.612 660.664 116.245V109.975C660.664 109.608 660.367 109.311 660 109.311C659.633 109.311 659.336 109.608 659.336 109.975V116.245C659.336 116.612 659.633 116.909 660 116.909Z" fill="black"/>
<path d="M664.963 116.744C665.046 116.778 665.132 116.795 665.217 116.795C665.478 116.795 665.725 116.64 665.831 116.384L666.583 114.569C666.723 114.231 666.562 113.842 666.223 113.702C665.884 113.562 665.496 113.722 665.356 114.061L664.604 115.876C664.464 116.215 664.624 116.603 664.963 116.744Z" fill="black"/>
<path d="M668.825 120.565C668.995 120.565 669.165 120.5 669.295 120.37L673.792 115.873C674.052 115.614 674.052 115.193 673.792 114.934C673.533 114.675 673.113 114.675 672.853 114.934L668.356 119.431C668.096 119.691 668.096 120.111 668.356 120.37C668.485 120.5 668.655 120.565 668.825 120.565Z" fill="black"/>
<path d="M654.169 116.384C654.275 116.64 654.522 116.794 654.783 116.794C654.867 116.794 654.954 116.778 655.037 116.744C655.376 116.603 655.536 116.215 655.396 115.876L654.644 114.061C654.504 113.722 654.116 113.562 653.777 113.702C653.438 113.842 653.277 114.231 653.417 114.569L654.169 116.384Z" fill="black"/>
<path d="M645.335 123.37L647.15 124.122C647.233 124.157 647.319 124.173 647.404 124.173C647.664 124.173 647.912 124.019 648.017 123.763C648.158 123.424 647.997 123.036 647.658 122.895L645.843 122.144C645.504 122.003 645.116 122.164 644.976 122.503C644.835 122.842 644.996 123.23 645.335 123.37Z" fill="black"/>
<path d="M650.705 120.37C650.835 120.5 651.005 120.565 651.175 120.565C651.345 120.565 651.514 120.5 651.644 120.37C651.903 120.111 651.903 119.691 651.644 119.431L647.147 114.934C646.887 114.675 646.467 114.675 646.208 114.934C645.948 115.193 645.948 115.614 646.208 115.873L650.705 120.37Z" fill="black"/>
<path d="M671.199 132.952C670.701 133.45 670.039 133.724 669.335 133.724C668.631 133.724 667.969 133.45 667.471 132.952C665.925 131.406 663.41 131.406 661.864 132.952C661.366 133.45 660.704 133.724 660 133.724C659.296 133.724 658.634 133.45 658.136 132.952C656.59 131.406 654.075 131.406 652.529 132.952C652.031 133.45 651.369 133.724 650.665 133.724C649.961 133.724 649.299 133.45 648.801 132.952C648.542 132.693 648.122 132.693 647.862 132.952C647.603 133.211 647.603 133.632 647.862 133.891C648.611 134.64 649.606 135.052 650.665 135.052C651.724 135.052 652.72 134.64 653.469 133.891C654.496 132.863 656.169 132.863 657.197 133.891C657.946 134.64 658.941 135.052 660 135.052C661.059 135.052 662.055 134.64 662.803 133.891C663.831 132.863 665.504 132.863 666.532 133.891C667.281 134.64 668.276 135.052 669.335 135.052C670.394 135.052 671.389 134.64 672.138 133.891C672.398 133.632 672.398 133.211 672.138 132.952C671.879 132.693 671.458 132.693 671.199 132.952Z" fill="black"/>
<path d="M666.532 138.591C666.034 139.089 665.372 139.363 664.667 139.363C663.963 139.363 663.301 139.089 662.803 138.591C662.055 137.842 661.059 137.43 660 137.43C658.941 137.43 657.946 137.842 657.197 138.591C656.699 139.089 656.037 139.363 655.333 139.363C654.628 139.363 653.966 139.089 653.469 138.591C653.209 138.332 652.789 138.332 652.529 138.591C652.27 138.85 652.27 139.271 652.529 139.53C654.075 141.076 656.59 141.076 658.136 139.53C658.634 139.032 659.296 138.758 660 138.758C660.704 138.758 661.366 139.032 661.864 139.53C662.637 140.303 663.652 140.689 664.667 140.689C665.683 140.689 666.698 140.303 667.471 139.53C667.73 139.271 667.73 138.85 667.471 138.591C667.211 138.332 666.791 138.332 666.532 138.591Z" fill="black"/>
<path d="M660.469 129.196C660.593 129.072 660.664 128.901 660.664 128.726C660.664 128.552 660.593 128.38 660.469 128.257C660.346 128.133 660.175 128.062 660 128.062C659.825 128.062 659.654 128.133 659.531 128.257C659.407 128.38 659.336 128.552 659.336 128.726C659.336 128.901 659.407 129.072 659.531 129.196C659.654 129.319 659.825 129.39 660 129.39C660.175 129.39 660.346 129.319 660.469 129.196Z" fill="black"/>
<path d="M593.463 117.954C593.487 117.815 593.565 117.691 593.681 117.61C593.796 117.529 593.938 117.497 594.077 117.521C596.69 117.982 599.082 119.282 600.889 121.224C600.938 121.275 600.977 121.335 601.002 121.401C601.028 121.467 601.04 121.537 601.038 121.608C601.037 121.679 601.021 121.748 600.992 121.813C600.963 121.877 600.921 121.935 600.869 121.983C600.817 122.031 600.757 122.069 600.69 122.093C600.624 122.117 600.553 122.128 600.483 122.125C600.412 122.122 600.343 122.104 600.279 122.074C600.215 122.044 600.158 122.001 600.111 121.948C598.462 120.175 596.28 118.989 593.896 118.568C593.757 118.544 593.633 118.465 593.552 118.35C593.471 118.235 593.439 118.092 593.463 117.954ZM606.643 135.675V136.253C606.643 136.823 606.416 137.369 606.013 137.772C605.611 138.175 605.064 138.402 604.494 138.402H579.506C578.936 138.402 578.389 138.175 577.987 137.772C577.584 137.369 577.357 136.823 577.357 136.253V135.675C577.357 135.105 577.584 134.559 577.987 134.156C578.389 133.753 578.936 133.526 579.506 133.526H586.89V130.011H578.269C578.128 130.011 577.993 129.955 577.894 129.856C577.794 129.756 577.738 129.621 577.738 129.48C577.743 125.791 579.175 122.247 581.735 119.591C584.294 116.935 587.783 115.373 591.469 115.231V113.844H588.813C588.672 113.844 588.536 113.788 588.437 113.688C588.337 113.589 588.281 113.453 588.281 113.313C588.281 113.172 588.337 113.037 588.437 112.937C588.536 112.837 588.672 112.781 588.813 112.781H595.188C595.328 112.781 595.464 112.837 595.563 112.937C595.663 113.037 595.719 113.172 595.719 113.313C595.719 113.453 595.663 113.589 595.563 113.688C595.464 113.788 595.328 113.844 595.188 113.844H592.531V115.231C596.217 115.373 599.706 116.935 602.266 119.591C604.825 122.247 606.257 125.791 606.262 129.48C606.262 129.621 606.206 129.756 606.106 129.856C606.007 129.955 605.872 130.011 605.731 130.011H597.108V133.526H604.492C605.063 133.526 605.609 133.752 606.013 134.155C606.416 134.558 606.643 135.105 606.643 135.675ZM578.811 128.949H605.189C605.052 125.543 603.603 122.321 601.144 119.96C598.686 117.598 595.409 116.279 592 116.279C588.591 116.279 585.314 117.598 582.856 119.96C580.397 122.321 578.948 125.543 578.811 128.949ZM587.955 133.526H596.045V130.011H587.955V133.526ZM605.581 135.675C605.581 135.387 605.466 135.111 605.262 134.907C605.059 134.703 604.783 134.588 604.494 134.588H579.506C579.217 134.588 578.941 134.703 578.738 134.907C578.534 135.111 578.419 135.387 578.419 135.675V136.253C578.419 136.541 578.534 136.817 578.738 137.021C578.941 137.225 579.217 137.34 579.506 137.34H604.494C604.783 137.34 605.059 137.225 605.262 137.021C605.466 136.817 605.581 136.541 605.581 136.253V135.675ZM582.245 114.171L582.253 114.184L583.152 115.501C583.2 115.573 583.266 115.631 583.342 115.672C583.419 115.712 583.504 115.733 583.591 115.733C583.688 115.733 583.783 115.707 583.865 115.657C583.948 115.608 584.016 115.536 584.062 115.451C584.107 115.365 584.128 115.269 584.123 115.172C584.117 115.076 584.086 114.983 584.031 114.903L581.934 111.83C581.895 111.772 581.845 111.723 581.786 111.685C581.728 111.646 581.663 111.62 581.594 111.607C581.526 111.594 581.455 111.595 581.387 111.609C581.318 111.623 581.254 111.651 581.196 111.69C581.138 111.729 581.089 111.78 581.051 111.838C581.013 111.896 580.986 111.962 580.973 112.03C580.96 112.099 580.961 112.169 580.975 112.238C580.989 112.306 581.017 112.371 581.056 112.429L582.245 114.171ZM580.366 119.076C580.481 119.076 580.594 119.039 580.686 118.97C580.778 118.9 580.846 118.803 580.878 118.691C580.91 118.58 580.904 118.462 580.863 118.354C580.821 118.246 580.746 118.155 580.648 118.094L579.3 117.244L579.288 117.236L577.502 116.112C577.443 116.073 577.377 116.047 577.308 116.035C577.239 116.022 577.168 116.023 577.099 116.038C577.03 116.053 576.965 116.082 576.907 116.122C576.85 116.163 576.801 116.214 576.763 116.274C576.726 116.334 576.7 116.4 576.689 116.469C576.677 116.539 576.679 116.61 576.696 116.678C576.712 116.747 576.741 116.812 576.782 116.869C576.824 116.926 576.876 116.974 576.936 117.011L580.081 118.997C580.166 119.05 580.265 119.077 580.366 119.076ZM600.411 115.733C600.497 115.733 600.583 115.712 600.659 115.672C600.736 115.631 600.801 115.573 600.85 115.501L601.748 114.184L601.757 114.171L602.944 112.429C602.983 112.371 603.011 112.306 603.025 112.238C603.039 112.169 603.04 112.099 603.027 112.03C603.014 111.962 602.988 111.896 602.949 111.838C602.911 111.78 602.862 111.729 602.804 111.69C602.746 111.651 602.682 111.623 602.613 111.609C602.545 111.595 602.474 111.594 602.406 111.607C602.337 111.62 602.272 111.646 602.214 111.685C602.155 111.723 602.105 111.772 602.066 111.83L599.969 114.903C599.914 114.982 599.883 115.075 599.877 115.172C599.872 115.268 599.893 115.364 599.938 115.45C599.983 115.535 600.051 115.607 600.133 115.656C600.216 115.706 600.311 115.733 600.407 115.733H600.411ZM607.232 116.277C607.157 116.158 607.037 116.074 606.9 116.043C606.763 116.012 606.619 116.037 606.499 116.112L604.714 117.238L604.702 117.245L603.352 118.094C603.233 118.169 603.148 118.289 603.116 118.426C603.084 118.564 603.109 118.709 603.184 118.829C603.259 118.949 603.379 119.034 603.517 119.065C603.655 119.097 603.799 119.072 603.919 118.997L607.064 117.013C607.124 116.976 607.175 116.927 607.216 116.87C607.256 116.813 607.285 116.748 607.301 116.68C607.316 116.612 607.318 116.541 607.306 116.472C607.294 116.403 607.268 116.337 607.23 116.277H607.232Z" fill="black"/>
<path d="M534.883 108.608C534.002 107.77 532.608 107.804 531.768 108.683L528.306 112.317C525.667 111.916 522.987 112.728 521.015 114.528L520.998 114.512C520.747 114.272 520.348 114.282 520.108 114.534C520.108 114.534 520.108 114.534 520.108 114.534L519.113 115.579C518.8 115.906 518.63 116.344 518.643 116.796C518.646 116.914 518.602 117.028 518.52 117.113L518.512 117.122C516.094 119.662 513.932 122.433 512.058 125.396L508.67 130.757C508.111 131.645 508.254 132.805 509.013 133.53L515.35 139.567C516.112 140.289 517.277 140.376 518.137 139.775L523.327 136.13C526.195 134.114 528.858 131.82 531.277 129.282L531.285 129.274C531.367 129.188 531.479 129.139 531.597 129.136C532.049 129.126 532.479 128.936 532.79 128.607L533.785 127.562C534.025 127.31 534.016 126.912 533.764 126.672C533.764 126.672 533.764 126.672 533.764 126.672L533.747 126.656C535.449 124.599 536.13 121.883 535.601 119.266L539.062 115.632C539.9 114.75 539.866 113.356 538.987 112.516L534.883 108.608ZM533.341 109.259C533.591 109.251 533.834 109.345 534.015 109.519L538.118 113.428C538.495 113.788 538.51 114.385 538.151 114.763L537.933 114.992L532.463 109.78L532.68 109.552C532.852 109.37 533.09 109.264 533.341 109.259ZM536.63 116.359L531.16 111.148L531.594 110.692L537.065 115.903L536.63 116.359ZM534.893 118.183L529.423 112.971L530.291 112.059L535.762 117.271L534.893 118.183ZM531.878 127.739C531.797 127.825 531.684 127.874 531.566 127.877C531.114 127.886 530.685 128.077 530.374 128.405L530.366 128.413C528.004 130.892 525.404 133.131 522.603 135.099L517.413 138.744C517.045 139.002 516.546 138.965 516.219 138.655L509.881 132.618C509.556 132.307 509.495 131.811 509.735 131.43L513.123 126.069C514.953 123.176 517.063 120.471 519.423 117.991L519.432 117.983C519.745 117.656 519.914 117.218 519.901 116.766C519.898 116.647 519.942 116.533 520.024 116.448L520.586 115.858L532.439 127.149L531.878 127.739ZM532.833 125.785L528.665 121.815L521.929 115.399C523.647 113.867 525.967 113.199 528.236 113.581L534.343 119.397C534.834 121.645 534.279 123.995 532.833 125.785Z" fill="black"/>
<path d="M525.988 114.518C525.302 114.755 524.649 115.076 524.041 115.472C523.75 115.662 523.668 116.052 523.858 116.343C524.048 116.635 524.438 116.717 524.729 116.527C525.251 116.186 525.812 115.912 526.4 115.708C526.728 115.594 526.902 115.236 526.789 114.907C526.675 114.578 526.317 114.404 525.988 114.518V114.518Z" fill="black"/>
<path d="M516.994 123.748C516.714 123.54 516.32 123.599 516.113 123.878C515.333 124.931 514.582 126.026 513.882 127.134C513.696 127.428 513.784 127.816 514.078 128.002C514.372 128.188 514.761 128.1 514.947 127.806C515.63 126.725 516.363 125.656 517.125 124.628C517.332 124.349 517.273 123.955 516.994 123.748Z" fill="black"/>
<path d="M518.982 121.288C518.715 121.065 518.318 121.1 518.095 121.366C517.958 121.529 517.822 121.693 517.687 121.858C517.467 122.127 517.506 122.524 517.775 122.744C518.045 122.964 518.441 122.925 518.662 122.656C518.793 122.495 518.926 122.335 519.059 122.175C519.283 121.909 519.248 121.512 518.982 121.288Z" fill="black"/>
<path d="M518.977 112.863C519.149 112.863 519.314 112.793 519.433 112.668L519.507 112.589C520.177 111.882 521.102 111.473 522.076 111.452C522.423 111.443 522.698 111.154 522.69 110.807C522.681 110.459 522.393 110.184 522.045 110.192C520.737 110.221 519.495 110.771 518.596 111.72L518.521 111.798C518.281 112.05 518.291 112.449 518.543 112.689C518.66 112.8 518.815 112.863 518.977 112.863L518.977 112.863Z" fill="black"/>
<path d="M521.3 108.614C521.291 108.267 521.003 107.993 520.655 108C519.348 108.028 518.106 108.579 517.206 109.528L517.131 109.606C516.892 109.858 516.901 110.257 517.153 110.497C517.405 110.736 517.803 110.727 518.043 110.475L518.118 110.397C518.788 109.69 519.712 109.28 520.686 109.259C521.034 109.251 521.309 108.962 521.3 108.614C521.3 108.614 521.3 108.614 521.3 108.614Z" fill="black"/>
<path d="M526.686 137.205C526.422 136.979 526.025 137.009 525.798 137.273L525.728 137.355C525.096 138.096 524.194 138.553 523.222 138.625C522.876 138.651 522.616 138.954 522.642 139.3C522.667 139.628 522.941 139.882 523.27 139.882C523.286 139.882 523.302 139.882 523.318 139.88C524.623 139.784 525.835 139.17 526.684 138.175L526.754 138.093C526.98 137.829 526.95 137.432 526.686 137.205Z" fill="black"/>
<path d="M524.144 141.418C524.169 141.746 524.442 142 524.771 142C524.787 142 524.803 141.999 524.82 141.998C526.124 141.902 527.336 141.288 528.185 140.293L528.255 140.211C528.485 139.95 528.459 139.552 528.198 139.323C527.937 139.093 527.539 139.119 527.31 139.38C527.306 139.383 527.303 139.387 527.3 139.391L527.229 139.473C526.597 140.214 525.695 140.671 524.724 140.743C524.377 140.769 524.117 141.071 524.144 141.418Z" fill="black"/>
<g clip-path="url(#clip7_0_1)">
<path d="M456 122.344C451.222 122.344 442.188 123.01 442.188 125.531C442.188 128.053 451.222 128.719 456 128.719C460.778 128.719 469.812 128.053 469.812 125.531C469.812 123.01 460.778 122.344 456 122.344ZM456 127.656C447.588 127.656 443.25 126.169 443.25 125.531C443.25 124.894 447.588 123.406 456 123.406C464.412 123.406 468.75 124.894 468.75 125.531C468.75 126.169 464.412 127.656 456 127.656Z" fill="black"/>
<path d="M456 120.219C448.016 120.219 439.531 122.078 439.531 125.531V136.156C439.531 139.609 448.016 141.469 456 141.469C463.984 141.469 472.469 139.609 472.469 136.156V125.531C472.469 122.081 463.984 120.219 456 120.219ZM440.594 136.156V127.509C441.235 128.032 441.951 128.454 442.719 128.762V138.223C441.352 137.575 440.594 136.852 440.594 136.156ZM468.219 129.169V138.665C467.523 138.919 466.813 139.135 466.094 139.312V129.778C466.851 129.597 467.563 129.394 468.219 129.169ZM465.031 139.556C464.365 139.698 463.657 139.824 462.906 139.933V130.371C463.638 130.265 464.349 130.146 465.031 130.009V139.556ZM461.844 140.073C461.163 140.154 460.455 140.221 459.719 140.275V130.713C460.437 130.659 461.147 130.594 461.844 130.512V140.073ZM458.656 140.338C457.968 140.374 457.259 140.395 456.531 140.401V130.838C457.239 130.831 457.95 130.809 458.656 130.773V140.338ZM455.469 140.401C454.742 140.394 454.033 140.373 453.344 140.338V130.774C454.05 130.811 454.761 130.833 455.469 130.84V140.401ZM452.281 140.273C451.546 140.22 450.838 140.153 450.156 140.071V130.509C450.853 130.59 451.563 130.657 452.281 130.709V140.273ZM449.094 139.932C448.343 139.822 447.635 139.696 446.969 139.555V130.01C447.651 130.147 448.362 130.268 449.094 130.372V139.932ZM445.906 139.312C445.187 139.135 444.477 138.919 443.781 138.665V129.169C444.437 129.394 445.149 129.597 445.906 129.778V139.312ZM469.281 138.223V128.762C470.049 128.454 470.765 128.032 471.406 127.509V136.156C471.406 136.852 470.648 137.575 469.281 138.223ZM456 129.781C446.921 129.781 440.594 127.542 440.594 125.531C440.594 123.521 446.921 121.281 456 121.281C465.079 121.281 471.406 123.521 471.406 125.531C471.406 127.542 465.079 129.781 456 129.781Z" fill="black"/>
<path d="M449.074 112.725L449.92 112.161L449.33 111.277L448.484 111.841C448.212 112.022 447.984 112.262 447.816 112.542C447.648 112.822 447.544 113.136 447.511 113.461C447.479 113.786 447.52 114.115 447.63 114.423C447.74 114.73 447.916 115.01 448.148 115.241L448.757 115.852C448.878 115.972 448.97 116.117 449.027 116.277C449.084 116.437 449.105 116.607 449.088 116.776C449.071 116.945 449.017 117.108 448.93 117.254C448.843 117.399 448.724 117.524 448.583 117.618L447.736 118.182L448.326 119.066L449.172 118.502C449.444 118.32 449.672 118.081 449.84 117.801C450.009 117.521 450.113 117.207 450.145 116.881C450.177 116.556 450.137 116.228 450.027 115.92C449.917 115.612 449.74 115.333 449.509 115.102L448.899 114.491C448.779 114.371 448.687 114.226 448.63 114.066C448.572 113.906 448.551 113.735 448.568 113.566C448.585 113.398 448.639 113.234 448.726 113.089C448.814 112.943 448.932 112.819 449.074 112.725Z" fill="black"/>
<path d="M455.98 110.069L456.826 109.504L456.236 108.62L455.391 109.185C455.119 109.366 454.89 109.605 454.722 109.885C454.554 110.166 454.45 110.48 454.418 110.805C454.385 111.13 454.426 111.459 454.536 111.766C454.646 112.074 454.823 112.354 455.054 112.585L455.664 113.196C455.784 113.316 455.876 113.461 455.933 113.621C455.99 113.78 456.011 113.951 455.994 114.12C455.978 114.289 455.924 114.452 455.836 114.598C455.749 114.743 455.63 114.867 455.489 114.961L454.643 115.526L455.232 116.41L456.078 115.845C456.35 115.664 456.578 115.425 456.747 115.145C456.915 114.864 457.019 114.55 457.051 114.225C457.083 113.9 457.043 113.572 456.933 113.264C456.823 112.956 456.646 112.677 456.415 112.445L455.805 111.835C455.685 111.715 455.593 111.569 455.536 111.41C455.479 111.25 455.458 111.079 455.474 110.91C455.491 110.741 455.545 110.578 455.632 110.433C455.72 110.287 455.839 110.163 455.98 110.069Z" fill="black"/>
<path d="M463.417 112.725L464.264 112.161L463.674 111.277L462.828 111.841C462.556 112.022 462.328 112.262 462.16 112.542C461.991 112.822 461.887 113.136 461.855 113.461C461.823 113.786 461.863 114.115 461.973 114.423C462.083 114.73 462.26 115.01 462.491 115.241L463.101 115.852C463.221 115.972 463.313 116.117 463.37 116.277C463.428 116.437 463.449 116.607 463.432 116.776C463.415 116.945 463.361 117.108 463.274 117.254C463.186 117.399 463.068 117.524 462.926 117.618L462.08 118.182L462.67 119.066L463.516 118.502C463.788 118.32 464.016 118.081 464.184 117.801C464.352 117.521 464.456 117.207 464.489 116.881C464.521 116.556 464.48 116.228 464.37 115.92C464.26 115.612 464.084 115.333 463.852 115.102L463.243 114.491C463.122 114.371 463.03 114.226 462.973 114.066C462.916 113.906 462.895 113.735 462.912 113.566C462.929 113.398 462.983 113.234 463.07 113.089C463.157 112.943 463.276 112.819 463.417 112.725Z" fill="black"/>
</g>
<path d="M387.934 138.979C389.144 138.979 390.125 137.997 390.125 136.787C390.125 135.577 389.144 134.596 387.934 134.596C386.723 134.596 385.742 135.577 385.742 136.787C385.742 137.997 386.723 138.979 387.934 138.979Z" fill="black"/>
<path d="M404.643 118.284C400.279 113.601 394.368 111.022 388 111.021C381.632 111.022 375.721 113.601 371.357 118.284C370.856 118.82 370.886 119.661 371.423 120.161C371.959 120.661 372.8 120.632 373.3 120.095C377.157 115.957 382.377 113.678 388 113.678C393.623 113.678 398.843 115.957 402.7 120.095C402.962 120.376 403.317 120.518 403.672 120.518C403.996 120.518 404.321 120.399 404.577 120.161C405.114 119.661 405.144 118.82 404.643 118.284Z" fill="black"/>
<path d="M399.767 123.769C396.54 120.518 392.361 118.728 388 118.728C383.637 118.728 379.458 120.518 376.233 123.769C375.716 124.289 375.72 125.13 376.24 125.647C376.761 126.164 377.602 126.16 378.118 125.64C380.841 122.895 384.351 121.384 388 121.384C391.648 121.384 395.157 122.895 397.881 125.64C398.141 125.901 398.482 126.032 398.824 126.032C399.162 126.032 399.501 125.904 399.76 125.647C400.28 125.13 400.283 124.289 399.767 123.769Z" fill="black"/>
<path d="M394.451 129.269C392.723 127.558 390.247 126.494 387.987 126.494C387.987 126.494 387.987 126.494 387.986 126.494H387.891C387.89 126.494 387.89 126.494 387.89 126.494C385.63 126.494 383.154 127.558 381.426 129.269C380.905 129.786 380.901 130.627 381.417 131.148C381.677 131.41 382.019 131.541 382.36 131.541C382.698 131.541 383.036 131.413 383.295 131.156C384.525 129.938 386.329 129.15 387.89 129.15C387.89 129.15 387.89 129.15 387.891 129.15H387.987C387.987 129.15 387.987 129.15 387.987 129.15C389.548 129.15 391.352 129.938 392.582 131.156C393.103 131.673 393.944 131.669 394.46 131.148C394.976 130.627 394.972 129.786 394.451 129.269Z" fill="black"/>
<path d="M873.917 120.75L864 129.25L854.083 120.75" stroke="#161117" stroke-width="1.5" stroke-linecap="round" stroke-linejoin="round"/>
<g clip-path="url(#clip8_0_1)">
<path d="M744.396 114.43C743.955 113.909 743.338 113.591 742.659 113.534L718.715 111.535C718.036 111.478 717.375 111.69 716.854 112.13C716.335 112.569 716.017 113.183 715.959 113.859L715.477 118.379H713.554C712.146 118.379 711 119.524 711 120.932V135.92C711 137.328 712.146 138.474 713.554 138.474H737.58C738.988 138.474 740.134 137.328 740.134 135.92V133.489L740.986 133.56C741.058 133.566 741.13 133.569 741.201 133.569C742.514 133.569 743.633 132.559 743.744 131.228L744.991 116.292C745.048 115.612 744.836 114.951 744.396 114.43ZM713.554 119.707H737.58C738.256 119.707 738.806 120.256 738.806 120.932V122.298H712.328V120.932C712.328 120.256 712.878 119.707 713.554 119.707ZM712.328 123.626H738.806V126.381H712.328V123.626ZM737.58 137.146H713.554C712.878 137.146 712.328 136.596 712.328 135.92V127.709H738.806V135.92C738.806 136.596 738.256 137.146 737.58 137.146ZM743.667 116.181L742.42 131.117C742.364 131.791 741.77 132.293 741.097 132.237L740.134 132.156V120.932C740.134 119.524 738.988 118.379 737.58 118.379H716.813L717.28 113.993C717.281 113.988 717.281 113.983 717.282 113.978C717.338 113.305 717.931 112.802 718.605 112.859L742.548 114.858C742.874 114.885 743.17 115.038 743.382 115.288C743.593 115.538 743.695 115.855 743.667 116.181Z" fill="#747474"/>
<path d="M736.027 129.684H729.636C729.269 129.684 728.972 129.981 728.972 130.348V134.517C728.972 134.884 729.269 135.181 729.636 135.181H736.027C736.394 135.181 736.691 134.884 736.691 134.517V130.348C736.691 129.981 736.394 129.684 736.027 129.684ZM735.363 133.853H730.3V131.012H735.363V133.853Z" fill="#747474"/>
</g>
<path fill-rule="evenodd" clip-rule="evenodd" d="M786.436 122.244V119.333C786.436 114.052 790.717 109.771 795.999 109.771C801.28 109.771 805.561 114.052 805.561 119.333V122.244C807.14 122.362 808.169 122.66 808.921 123.412C810.165 124.656 810.165 126.66 810.165 130.667C810.165 134.674 810.165 136.677 808.921 137.922C807.676 139.167 805.672 139.167 801.665 139.167H790.332C786.325 139.167 784.322 139.167 783.077 137.922C781.832 136.677 781.832 134.674 781.832 130.667C781.832 126.66 781.832 124.656 783.077 123.412C783.829 122.66 784.857 122.362 786.436 122.244ZM788.561 119.333C788.561 115.226 791.891 111.896 795.999 111.896C800.106 111.896 803.436 115.226 803.436 119.333V122.172C802.894 122.167 802.305 122.167 801.665 122.167H790.332C789.692 122.167 789.104 122.167 788.561 122.172V119.333Z" fill="#161117"/>
<path d="M1059.33 51H1036.67M1036.67 51L1045.17 42.5M1036.67 51L1045.17 59.5" stroke="#1C274C" stroke-width="1.5" stroke-linecap="round" stroke-linejoin="round"/>
<defs>
<clipPath id="clip0_0_1">
<rect width="34" height="34" fill="white" transform="translate(99 34)"/>
</clipPath>
<clipPath id="clip1_0_1">
<rect width="35" height="35" fill="white" transform="translate(646 33)"/>
</clipPath>
<clipPath id="clip2_0_1">
<rect width="35" height="35" fill="white" transform="translate(715 33)"/>
</clipPath>
<clipPath id="clip3_0_1">
<rect width="34" height="34" fill="white" transform="translate(235 108)"/>
</clipPath>
<clipPath id="clip4_0_1">
<rect width="34" height="34" fill="white" transform="translate(167 108)"/>
</clipPath>
<clipPath id="clip5_0_1">
<rect width="34" height="34" fill="white" transform="translate(99 108)"/>
</clipPath>
<clipPath id="clip6_0_1">
<rect width="34" height="34" fill="white" transform="translate(31 108)"/>
</clipPath>
<clipPath id="clip7_0_1">
<rect width="34" height="34" fill="white" transform="translate(439 108)"/>
</clipPath>
<clipPath id="clip8_0_1">
<rect width="34" height="34" fill="white" transform="translate(711 108)"/>
</clipPath>
</defs>
</svg>
